# xmcd
#
# Track frame offsets:
#	150
#	12740
#	31007
#	45459
#	65017
#	80981
#	102812
#	126972
#	146576
#	158502
#	176316
#
# Disc length: 2662 seconds
# Revision: 0
# Processed by: cddbd v1.5.2PL0 Copyright (c) Steve Scherf et al.
# Submitted via: dBpowerAMP V12.0
#
DISCID=8c0a640b
DTITLE=Ryk Mead - Chicago
DYEAR=2015
DGENRE=Blues
TTITLE0=Heartful of Misery
TTITLE1=Chicago
TTITLE2=I'm Not Afraid
TTITLE3=Put Away Your Blues
TTITLE4=Fooling Me Too Long
TTITLE5=Everyday
TTITLE6=Blues Latino
TTITLE7=Walking In The Sun
TTITLE8=Running Out Of Time
TTITLE9=Hurricane Blues
TTITLE10=Cyprus Grove
EXTD=
EXTT0=
EXTT1=
EXTT2=
EXTT3=
EXTT4=
EXTT5=
EXTT6=
EXTT7=
EXTT8=
EXTT9=
EXTT10=
PLAYORDER=
